<?xml version="1.0" encoding="UTF-8"?>
<svg version="1.1" xmlns="http://www.w3.org/2000/svg" width="500" height="500">
<path d="M0 0 C2.29437748 -0.00072634 4.58874947 -0.00288921 6.88312554 -0.00549722 C14.97930221 -0.01466542 23.07546276 -0.01884326 31.17164445 -0.01804566 C37.75402609 -0.01751406 44.33634823 -0.02456175 50.91871476 -0.03855348 C114.28271381 -0.17010708 114.28271381 -0.17010708 140.12306046 1.06569457 C140.96694007 1.10544213 141.81081967 1.1451897 142.68027139 1.18614173 C162.20620939 2.14489912 181.38529957 4.63943635 199.89259171 11.16725707 C200.53341691 11.39139281 201.17424211 11.61552855 201.83448625 11.84645629 C232.69390298 22.86934349 258.79609712 45.51263182 273.12794328 75.07472777 C281.91608357 93.84265864 287.01251372 113.53063627 288.89259171 134.16725707 C289.04147843 135.70833129 289.04147843 135.70833129 289.19337296 137.28053832 C291.15295728 160.76630259 291.04718458 184.41989419 291.02691722 207.96970916 C291.02432104 211.95499264 291.02675074 215.94027424 291.02830338 219.92555785 C291.0301045 226.6083421 291.02777366 233.29111516 291.02296281 239.9738977 C291.01752423 247.61517078 291.01928836 255.25641714 291.02478921 262.89768958 C291.02937987 269.55001907 291.02994226 276.20234068 291.02735054 282.85467124 C291.02582 286.78766733 291.02550223 290.72065102 291.02888703 294.65364623 C291.11861289 415.60775108 291.11861289 415.60775108 248.14259171 459.35475707 C215.85752237 491.33350211 172.3373514 498.34748412 128.61183 499.72145629 C127.95398397 499.74241858 127.29613794 499.76338088 126.61835718 499.78497839 C111.28835872 500.26408312 95.96284749 500.31527353 80.62660575 500.30158257 C76.76459374 500.29897611 72.9025836 500.30141865 69.04057145 500.30296874 C62.5682261 500.30476663 56.09589232 500.30244738 49.62354875 500.29762816 C42.23046493 500.29218558 34.83740872 500.29395797 27.44432557 500.29945457 C20.99658911 500.30404917 14.54886078 500.30460591 8.10112321 500.3020159 C4.29389528 500.30048803 0.48668015 500.30015966 -3.32054687 500.30355239 C-122.65184177 500.3952167 -122.65184177 500.3952167 -165.10740829 460.16725707 C-166.00459579 459.3345227 -166.90178329 458.50178832 -167.82615829 457.64381957 C-204.29042349 422.71597003 -207.98251877 371.80253391 -209.10740829 324.16725707 C-209.26710354 313.73174727 -209.27282899 303.29529746 -209.27466536 292.85877848 C-209.27539042 290.52655462 -209.27755116 288.19433619 -209.28016257 285.86211371 C-209.28934053 277.63626918 -209.29350753 269.41044054 -209.29271102 261.18459105 C-209.29217972 254.49153272 -209.29921712 247.79853295 -209.31321883 241.10548949 C-209.44492835 176.65443168 -209.44492835 176.65443168 -208.20506454 150.85475707 C-208.1650501 150.01199155 -208.12503566 149.16922603 -208.08380866 148.30092216 C-206.2743759 111.76042723 -198.04878551 74.58900065 -172.11522079 47.31569457 C-170.03817121 45.15039182 -170.03817121 45.15039182 -168.06053329 42.59303832 C-146.74033069 16.11334669 -108.20903513 5.63315599 -76.10740829 2.16725707 C-50.88575298 -0.24498357 -25.3171598 0.0045396 0 0 Z M-129.10740829 68.16725707 C-129.9697911 68.86721801 -130.83217391 69.56717895 -131.72068954 70.28835082 C-152.47690409 87.95790524 -160.17101324 114.09949857 -162.37991691 140.4135797 C-164.05418062 163.72206083 -164.26315197 187.06413345 -164.24173379 210.42273879 C-164.23912991 214.17799222 -164.24156929 217.93324373 -164.24311996 221.6884973 C-164.24491898 227.98448169 -164.24259595 234.28045419 -164.23777938 240.57643676 C-164.23234122 247.76612178 -164.23410551 254.95577841 -164.23960578 262.14546275 C-164.24420264 268.41481647 -164.24475593 274.68416185 -164.24216712 280.95351672 C-164.24063984 284.65569879 -164.24030897 288.3578677 -164.2437036 292.06004882 C-166.73750554 364.80940726 -166.73750554 364.80940726 -134.97850204 427.38210082 C-110.762345 451.38676303 -75.92450347 453.71459803 -43.72874618 454.72145629 C-42.7391862 454.75289973 -42.7391862 454.75289973 -41.72963512 454.78497839 C-26.91719218 455.24740893 -12.10669357 455.31556909 2.71214247 455.30158257 C6.37482678 455.29897087 10.03750918 455.30142003 13.70019364 455.30296874 C19.83879392 455.30476543 25.97738199 455.30245092 32.11598039 455.29762816 C39.11937129 455.29218803 46.12273304 455.29395671 53.12612325 455.29945457 C59.24181876 455.30405541 65.35750572 455.30460293 71.47320241 455.3020159 C75.08093033 455.30049104 78.68864476 455.30015051 82.2963717 455.30355239 C155.94885923 457.68883219 155.94885923 457.68883219 219.08399796 425.04616332 C251.71608935 390.24285646 246.06571637 334.87799861 246.02691722 290.86919832 C246.02431687 286.97067163 246.02675177 283.07214682 246.02830338 279.17361999 C246.03010315 272.63804735 246.02777711 266.10248616 246.02296281 259.56691527 C246.0175222 252.09660033 246.0192904 244.6263127 246.02478921 237.15599841 C246.02938108 230.64802119 246.02994176 224.14005202 246.02735054 217.6320737 C246.02582093 213.7862829 246.02549948 209.94050478 246.02888703 206.09471488 C248.48532284 139.49247121 248.48532284 139.49247121 222.89259171 80.16725707 C222.19263078 79.30487426 221.49266984 78.44249145 220.77149796 77.55397582 C202.65366541 56.27117429 175.90433013 48.84205929 149.01902604 46.67943358 C142.07285603 46.1515113 135.13237063 45.83896849 128.17042375 45.61305785 C126.87814929 45.57094743 125.58587483 45.528837 124.25444055 45.48545051 C109.73617084 45.03887499 95.21894778 45.02000509 80.69506812 45.03293157 C76.82724378 45.03553503 72.95942132 45.03309626 69.09159684 45.0315454 C62.60907898 45.0297467 56.12657265 45.03206899 49.64405656 45.03688598 C42.23563673 45.04232871 34.82724444 45.0405564 27.41882527 45.03505957 C20.96178287 45.03046737 14.50474857 45.02990711 8.04770505 45.03249824 C4.23322825 45.03402738 0.41876423 45.03435066 -3.39571166 45.03096175 C-69.88749474 42.59499641 -69.88749474 42.59499641 -129.10740829 68.16725707 Z " fill="#020202" transform="translate(209.107408285141,-0.16725707054138184)"/>
<path d="M0 0 C2.3046875 1.40234375 2.3046875 1.40234375 4.375 2.875 C5.01695312 3.30941406 5.65890625 3.74382812 6.3203125 4.19140625 C12.60896833 8.96915126 17.68147965 16.72387145 19.19165039 24.51977539 C20.03201117 35.3146628 18.06446101 44.40630314 13.82806396 54.31271362 C12.96680852 56.3276527 12.13306632 58.3522396 11.30517578 60.38110352 C10.3812377 62.64532448 9.45590709 64.90884949 8.52328491 67.16950989 C4.3790643 77.22833762 0.45836634 87.37476896 -3.47198486 97.51861572 C-4.73075632 100.76290243 -5.99644513 104.00442253 -7.26318359 107.24560547 C-8.05333081 109.27691287 -8.84321859 111.30832121 -9.6328125 113.33984375 C-9.9917157 114.25536514 -10.3506189 115.17088654 -10.72039795 116.114151 C-12.98304369 121.95987989 -14.91304564 127.84508256 -16.625 133.875 C-15.84898437 134.17680176 -15.07296875 134.47860352 -14.2734375 134.78955078 C-11.35457695 135.93158109 -8.44040091 137.08469451 -5.52880859 138.24511719 C-3.66445841 138.98435427 -1.79515821 139.7110684 0.07421875 140.4375 C11.94041596 145.18397888 22.2166064 151.52282423 27.8125 163.5 C32.27223279 176.75674336 28.04251598 190.33516278 24.8125 203.375 C24.35033152 205.29039658 23.88973675 207.20617353 23.43066406 209.12231445 C22.51475343 212.93828651 21.59137707 216.75232 20.66162109 220.56494141 C18.92186416 227.71691962 17.27603987 234.88960674 15.625 242.0625 C13.37776227 251.73550592 11.03060116 261.37854746 8.57983398 271.00195312 C7.2366831 276.30791691 5.9672235 281.62312055 4.7734375 286.96484375 C4.50797119 288.14852539 4.24250488 289.33220703 3.96899414 290.55175781 C3.46027043 292.83712079 2.95905922 295.12417329 2.46655273 297.41308594 C2.1215271 298.96237793 2.1215271 298.96237793 1.76953125 300.54296875 C1.57206299 301.45328857 1.37459473 302.3636084 1.17114258 303.30151367 C0.06095624 306.89012889 -1.35244475 309.95349447 -4.4375 312.1875 C-11.46366224 314.39572242 -17.04991987 311.31187695 -23.4375 308.5625 C-25.86681268 307.5451847 -28.29732894 306.53150078 -30.73046875 305.5234375 C-31.40565552 305.24311172 -32.08084229 304.96278595 -32.77648926 304.67396545 C-42.86624376 300.5073187 -53.06683334 296.61854043 -63.25 292.6875 C-65.3891271 291.86063933 -67.52820562 291.03365297 -69.66723633 290.20654297 C-72.88275636 288.96323274 -76.09830875 287.72000736 -79.31407166 286.47732544 C-89.42604618 282.56867789 -99.52710866 278.63236319 -109.625 274.6875 C-111.29727852 274.03441516 -112.96956041 273.38133898 -114.6418457 272.72827148 C-117.96363401 271.43090033 -121.28531848 270.13326374 -124.60693359 268.83544922 C-131.48592246 266.14779499 -138.36558343 263.46186372 -145.24560547 260.77685547 C-148.67094204 259.43999586 -152.09570018 258.10166993 -155.52001953 256.76220703 C-163.17039396 253.77136559 -170.82449371 250.79176924 -178.49693298 247.85791016 C-181.86557281 246.56959679 -185.23215828 245.27595969 -188.59872437 243.98223877 C-190.18518265 243.37459208 -191.7727531 242.76984027 -193.36148071 242.16815186 C-195.54324124 241.34181169 -197.72112105 240.50593446 -199.8984375 239.66796875 C-201.12997559 239.1989917 -202.36151367 238.73001465 -203.63037109 238.24682617 C-206.33125503 237.00956326 -207.85893354 236.2145284 -209.625 233.875 C-211.22844394 229.06466819 -211.29812578 225.33403592 -209.15625 220.69140625 C-208.15078125 219.08072266 -208.15078125 219.08072266 -207.125 217.4375 C-206.38164551 216.20930582 -205.64219689 214.97874091 -204.90625 213.74609375 C-204.52597656 213.11171387 -204.14570313 212.47733398 -203.75390625 211.82373047 C-201.89877656 208.62138506 -200.25887804 205.31932232 -198.625 202 C-198.29564453 201.33299072 -197.96628906 200.66598145 -197.62695312 199.97875977 C-196.95849829 198.62214174 -196.29118176 197.26496225 -195.625 195.90722656 C-193.97530123 192.55466491 -192.29893221 189.21550828 -190.625 185.875 C-189.9582031 184.54173179 -189.29153648 183.20839842 -188.625 181.875 C-187.29166667 179.20833333 -185.95833333 176.54166667 -184.625 173.875 C-184.2952417 173.21540283 -183.9654834 172.55580566 -183.62573242 171.8762207 C-182.95688458 170.5386882 -182.28777517 169.20128646 -181.6184082 167.86401367 C-179.98297712 164.59593217 -178.35167824 161.32594346 -176.73046875 158.05078125 C-172.44195872 149.40462707 -168.01699984 140.83900014 -163.48120117 132.31958008 C-161.33734558 128.26651782 -159.30847189 124.22422047 -157.50390625 120.0078125 C-155.35423437 115.07528673 -152.40077617 111.66680919 -148.625 107.875 C-148.09003906 107.31683594 -147.55507812 106.75867188 -147.00390625 106.18359375 C-139.17147577 98.6892538 -129.83196789 97.28143163 -119.38818359 97.40234375 C-112.33417195 97.67348186 -106.18790901 99.27041971 -99.625 101.875 C-98.98868652 102.12652832 -98.35237305 102.37805664 -97.69677734 102.63720703 C-94.43068702 103.93185222 -91.17878339 105.2492114 -87.9375 106.60546875 C-85.12731243 107.68248639 -82.58658602 108.40944765 -79.625 108.875 C-79.04492188 107.07095703 -79.04492188 107.07095703 -78.453125 105.23046875 C-76.30726354 98.8016379 -73.83475295 92.50117523 -71.375 86.1875 C-70.85323146 84.84425383 -70.33150401 83.50099169 -69.80981445 82.15771484 C-65.50765389 71.09328976 -61.16508205 60.04467009 -56.8125 49 C-56.50461548 48.21783112 -56.19673096 47.43566223 -55.8795166 46.62979126 C-53.80897005 41.37244259 -51.72373457 36.12115774 -49.625 30.875 C-49.31488983 30.09752411 -49.00477966 29.32004822 -48.68527222 28.51901245 C-47.75718183 26.19898044 -46.82123361 23.88227626 -45.8828125 21.56640625 C-45.60443039 20.86891266 -45.32604828 20.17141907 -45.03923035 19.45278931 C-40.92708883 9.37898127 -35.36414502 3.64241364 -25.625 -1.125 C-18.01809951 -3.6606335 -7.26638386 -3.50403673 0 0 Z M-25.625 23.875 C-26.8466577 26.14737711 -26.8466577 26.14737711 -27.75390625 28.703125 C-28.13981934 29.70714355 -28.52573242 30.71116211 -28.92333984 31.74560547 C-29.3405127 32.86080566 -29.75768555 33.97600586 -30.1875 35.125 C-30.89082178 36.96143741 -31.59425183 38.7978344 -32.29986572 40.63339233 C-32.82753013 42.00649682 -33.35396992 43.38007239 -33.8793335 44.75405884 C-36.33389845 51.16089684 -38.8589018 57.53893443 -41.39453125 63.9140625 C-41.81313919 64.96710571 -42.23174713 66.02014893 -42.66304016 67.10510254 C-44.35897782 71.3700629 -46.0556604 75.63472436 -47.75442505 79.89855957 C-53.35929283 93.93264639 -53.35929283 93.93264639 -58.6953125 108.0703125 C-59.07703613 109.11461426 -59.45875977 110.15891602 -59.85205078 111.23486328 C-60.81231634 114.05631708 -60.81231634 114.05631708 -60.625 117.875 C-57.38244348 119.24750361 -54.12996348 120.59471548 -50.875 121.9375 C-49.49441406 122.52241211 -49.49441406 122.52241211 -48.0859375 123.11914062 C-47.19648438 123.48330078 -46.30703125 123.84746094 -45.390625 124.22265625 C-44.16520996 124.73324585 -44.16520996 124.73324585 -42.91503906 125.25415039 C-40.24204896 125.97882138 -39.17048061 125.93500478 -36.625 124.875 C-35.20928769 122.78099186 -35.20928769 122.78099186 -34.18652344 120.10839844 C-33.76399292 119.10772339 -33.3414624 118.10704834 -32.90612793 117.0760498 C-32.48335571 116.01970337 -32.0605835 114.96335693 -31.625 113.875 C-31.22124146 112.87376099 -30.81748291 111.87252197 -30.40148926 110.84094238 C-29.12418466 107.61619848 -27.87874331 104.38060824 -26.640625 101.140625 C-25.93713106 99.31255133 -25.23363662 97.48447784 -24.53011703 95.65641403 C-23.5540039 93.11748918 -22.5809828 90.57738386 -21.60791016 88.03729248 C-19.92888344 83.65641423 -18.24462844 79.27754352 -16.56066895 74.89855957 C-15.61784559 72.44501435 -14.67666934 69.99083553 -13.73718262 67.53601074 C-11.50640684 61.7162117 -9.24889412 55.91056691 -6.91601562 50.13085938 C-6.49447205 49.07985046 -6.07292847 48.02884155 -5.63861084 46.94598389 C-4.85202101 44.99097179 -4.05719979 43.0392426 -3.25250244 41.09161377 C-1.13700002 35.81871817 0.70076467 31.22460896 -1.5078125 25.64453125 C-4.30695956 21.23455428 -6.47656283 18.59114572 -11.625 16.875 C-17.78787064 15.97311649 -21.68641283 19.51551365 -25.625 23.875 Z M-136.75 123.625 C-139.85857825 127.64587839 -141.66473429 132.26419283 -143.6003418 136.9206543 C-149.3445962 150.59268761 -156.8220542 163.53165763 -163.82788086 176.58837891 C-167.57784216 183.60796281 -171.09474306 190.7433389 -174.625 197.875 C-176.039102 200.73044816 -177.45626056 203.58435365 -178.875 206.4375 C-179.35066406 207.40127563 -179.35066406 207.40127563 -179.8359375 208.38452148 C-180.29613281 209.30986694 -180.29613281 209.30986694 -180.765625 210.25390625 C-181.21131836 211.15326904 -181.21131836 211.15326904 -181.66601562 212.07080078 C-182.625 213.875 -182.625 213.875 -183.81835938 215.75341797 C-185.15043697 217.78214828 -185.15043697 217.78214828 -186.625 220.875 C-185.81469035 223.57020871 -185.06390482 224.61203524 -182.64135742 226.06347656 C-181.84576416 226.37768555 -181.0501709 226.69189453 -180.23046875 227.015625 C-179.35712891 227.36367188 -178.48378906 227.71171875 -177.58398438 228.0703125 C-176.66939453 228.41835938 -175.75480469 228.76640625 -174.8125 229.125 C-173.90951172 229.48851562 -173.00652344 229.85203125 -172.07617188 230.2265625 C-166.04478908 232.63664484 -166.04478908 232.63664484 -159.625 232.875 C-155.83728447 228.39335185 -153.71355266 222.96671941 -151.375 217.625 C-150.98658936 216.75617188 -150.59817871 215.88734375 -150.19799805 214.9921875 C-148.23268649 210.58490746 -146.31847144 206.16178084 -144.47265625 201.703125 C-144.12944336 200.89004883 -143.78623047 200.07697266 -143.43261719 199.23925781 C-142.78617634 197.70340571 -142.15440866 196.16126481 -141.54003906 194.61230469 C-139.48484805 189.76456406 -137.4562903 187.38650408 -132.625 184.875 C-129.5625 184.3125 -129.5625 184.3125 -126.625 184.875 C-123.75 186.875 -123.75 186.875 -121.625 189.875 C-120.34877356 198.05052574 -124.27942999 204.45435939 -127.8125 211.625 C-128.97790815 214.03396225 -130.13507929 216.4467782 -131.29296875 218.859375 C-131.8554834 220.02791016 -132.41799805 221.19644531 -132.99755859 222.40039062 C-135.823003 228.43275257 -138.51728203 234.5518461 -140.625 240.875 C-136.20815238 244.43478096 -131.37648392 246.16742443 -126.125 248.1875 C-125.17496094 248.57228516 -124.22492188 248.95707031 -123.24609375 249.35351562 C-122.32957031 249.70736328 -121.41304688 250.06121094 -120.46875 250.42578125 C-119.63537109 250.75231689 -118.80199219 251.07885254 -117.94335938 251.4152832 C-115.62966498 252.06309895 -115.62966498 252.06309895 -113.44555664 251.21435547 C-111.25179044 249.60043548 -110.65001035 248.41552882 -109.65234375 245.89453125 C-109.31557617 245.07065918 -108.97880859 244.24678711 -108.63183594 243.39794922 C-108.27895508 242.50350098 -107.92607422 241.60905273 -107.5625 240.6875 C-106.77854593 238.78878852 -105.99062676 236.89171044 -105.19921875 234.99609375 C-104.78462402 234.00077637 -104.3700293 233.00545898 -103.94287109 231.97998047 C-101.69561194 226.685308 -99.3096025 221.46073655 -96.875 216.25 C-96.42761475 215.26104736 -95.98022949 214.27209473 -95.51928711 213.25317383 C-91.46921946 204.66096019 -91.46921946 204.66096019 -86.625 202.875 C-83.0625 202.375 -83.0625 202.375 -79.625 202.875 C-76.38461091 205.53378079 -75.70558352 207.19272621 -75.21484375 211.34765625 C-75.34295895 217.23022348 -78.09205545 222.11820325 -80.625 227.3125 C-81.11959717 228.36276367 -81.61419434 229.41302734 -82.1237793 230.49511719 C-84.43219791 235.38388368 -86.80024193 240.24104903 -89.20703125 245.08203125 C-89.58666016 245.85683838 -89.96628906 246.63164551 -90.35742188 247.42993164 C-91.06101205 248.85985462 -91.77912472 250.28275159 -92.51367188 251.69702148 C-94.33525718 255.17511602 -94.33525718 255.17511602 -94.01586914 258.92944336 C-92.17071619 261.51045509 -90.48273227 262.1193167 -87.5390625 263.26953125 C-86.52585937 263.66720703 -85.51265625 264.06488281 -84.46875 264.47460938 C-83.4065625 264.87486328 -82.344375 265.27511719 -81.25 265.6875 C-80.19554687 266.10708984 -79.14109375 266.52667969 -78.0546875 266.95898438 C-71.93779916 269.72201535 -71.93779916 269.72201535 -65.625 268.875 C-64.06664742 266.55205031 -62.85173264 264.37389982 -61.625 261.875 C-61.17656738 260.97604004 -60.72813477 260.07708008 -60.26611328 259.15087891 C-58.71734572 256.00687566 -57.19951572 252.84933063 -55.6875 249.6875 C-55.17509766 248.62724609 -54.66269531 247.56699219 -54.13476562 246.47460938 C-51.11906981 240.18648125 -48.38438933 233.89678817 -45.99389648 227.3425293 C-44.30637776 224.30066168 -42.75157544 223.3301825 -39.625 221.875 C-35.20441605 221.24348801 -33.37184866 221.3506169 -29.6875 223.9375 C-27.66154774 226.82294716 -27.09724721 228.18822829 -27.20825195 231.65112305 C-28.18026756 236.83805345 -30.88778426 241.54504575 -33.1875 246.25 C-34.2904905 248.56641034 -35.39074859 250.88412371 -36.48828125 253.203125 C-37.02533691 254.33427734 -37.56239258 255.46542969 -38.11572266 256.63085938 C-41.20585826 263.27300139 -43.93116912 270.06454023 -46.625 276.875 C-44.21180702 279.66292172 -41.85349392 280.80007684 -38.44140625 282.13671875 C-37.43142578 282.53310547 -36.42144531 282.92949219 -35.38085938 283.33789062 C-33.80014648 283.94407227 -33.80014648 283.94407227 -32.1875 284.5625 C-31.13755859 284.97822266 -30.08761719 285.39394531 -29.00585938 285.82226562 C-22.99978453 288.20252022 -22.99978453 288.20252022 -16.625 288.875 C-11.46382327 270.88775004 -7.18427992 252.78506436 -3.42529297 234.45532227 C-1.89513596 227.04201663 -0.14761828 219.72132339 1.73144531 212.38818359 C3.04819623 207.24606145 4.35869914 202.10276835 5.63726807 196.95101929 C6.11276716 195.04893367 6.60089847 193.15002002 7.08935547 191.2512207 C10.19330382 179.30977311 10.19330382 179.30977311 7.875 167.5625 C1.8218302 161.05534247 -6.09825472 158.34176769 -14.3125 155.4375 C-16.74789707 154.55476708 -19.18276498 153.67057329 -21.6171875 152.78515625 C-22.26027359 152.55240997 -22.90335968 152.3196637 -23.56593323 152.0798645 C-31.38285396 149.24846518 -39.16151478 146.31662175 -46.9375 143.375 C-47.68991974 143.09074158 -48.44233948 142.80648315 -49.21755981 142.51361084 C-65.49167742 136.35999707 -81.69130961 130.01651417 -97.8840332 123.65234375 C-98.84403732 123.2751973 -99.80404144 122.89805084 -100.7931366 122.50947571 C-102.60124161 121.79884042 -104.40904758 121.08744365 -106.21650696 120.37516785 C-107.42055428 119.90171684 -107.42055428 119.90171684 -108.64892578 119.41870117 C-109.34784943 119.14338058 -110.04677307 118.86806 -110.76687622 118.58439636 C-120.02185543 115.05102111 -129.59619621 116.39529378 -136.75 123.625 Z " fill="#0A0A0A" transform="translate(305.625,113.125)"/>
<path d="M0 0 C3.61652297 2.52653536 6.19014273 5.02765118 8.52734375 8.765625 C8.93726563 9.39855469 9.3471875 10.03148438 9.76953125 10.68359375 C13.83154514 18.14929515 13.90963559 27.36070861 11.83203125 35.484375 C8.68375174 43.20956505 3.51872276 48.99851012 -3.9296875 52.75390625 C-13.03872375 56.37793142 -21.36799491 56.41522721 -30.47265625 52.765625 C-38.49362318 48.40405544 -43.86857882 41.72620715 -46.47265625 33.015625 C-48.38316958 23.99754721 -46.80067213 15.55849754 -41.9453125 7.73046875 C-31.81401891 -5.78688052 -14.46606991 -8.31070862 0 0 Z " fill="#030303" transform="translate(400.47265625,91.234375)"/>
</svg>
